<?xml version="1.0" encoding="utf-8"?>
<!-- Generator: Adobe Illustrator 21.1.0, SVG Export Plug-In . SVG Version: 6.00 Build 0)  -->
<svg version="1.1" id="Layer_1" xmlns="http://www.w3.org/2000/svg" xmlns:xlink="http://www.w3.org/1999/xlink" x="0px" y="0px"
	 viewBox="0 0 502.9 431.5" style="enable-background:new 0 0 502.9 431.5;" xml:space="preserve">
<style type="text/css">
	.st0{fill:#FFFFFF;stroke:#0A8FEA;stroke-width:5.9277;stroke-miterlimit:10;}
	.st1{fill:#FFFFFF;stroke:#CC0099;stroke-width:5.0094;stroke-miterlimit:10;}
</style>
<g>
	<g>
		<path class="st0" d="M438.8,315.9c-73.3,63.7-183.6,54.8-246.3-19.8s-54.2-186.9,19.1-250.6S395.2-9.3,458,65.3
			S512.1,252.2,438.8,315.9z"/>
		<line class="st0" x1="342.2" y1="3.5" x2="287.8" y2="356.3"/>
	</g>
	<g>
		<path class="st1" d="M106.8,428.9H64.3c-34,0-61.8-27.8-61.8-61.8V68.4c0-34,27.8-61.8,61.8-61.8h42.5c34,0,61.8,27.8,61.8,61.8
			v298.8C168.6,401.1,140.8,428.9,106.8,428.9z"/>
		<line class="st1" x1="1.1" y1="210.7" x2="167.2" y2="210.7"/>
	</g>
</g>
</svg>
