<?xml version="1.0" encoding="utf-8"?>
<!-- Generator: Adobe Illustrator 21.1.0, SVG Export Plug-In . SVG Version: 6.00 Build 0)  -->
<svg version="1.1" id="Layer_1" xmlns="http://www.w3.org/2000/svg" xmlns:xlink="http://www.w3.org/1999/xlink" x="0px" y="0px"
	 width="100px" height="100px" viewBox="0 0 100 100" enable-background="new 0 0 100 100" xml:space="preserve">
<g>
	<g>
		
			<radialGradient id="SVGID_1_" cx="361.3394" cy="1070.6617" r="366.3599" gradientTransform="matrix(0.2 0 0 0.2 -22.4013 -160.8141)" gradientUnits="userSpaceOnUse">
			<stop  offset="2.424240e-02" style="stop-color:#FFFFFF"/>
			<stop  offset="0.1816" style="stop-color:#FAFAFA"/>
			<stop  offset="0.3778" style="stop-color:#EAEAEA"/>
			<stop  offset="0.5939" style="stop-color:#D1D1D1"/>
			<stop  offset="0.8788" style="stop-color:#8A8A8A"/>
		</radialGradient>
		<circle fill="url(#SVGID_1_)" cx="48.9" cy="51.6" r="39.7"/>
		
			<radialGradient id="SVGID_2_" cx="315.807" cy="926.9642" r="316.0365" gradientTransform="matrix(0.2258 0 0 0.2258 -21.6787 -155.6265)" gradientUnits="userSpaceOnUse">
			<stop  offset="2.424240e-02" style="stop-color:#FFFFFF"/>
			<stop  offset="0.1953" style="stop-color:#FAFAFA"/>
			<stop  offset="0.4081" style="stop-color:#EAEBEC"/>
			<stop  offset="0.5939" style="stop-color:#D7D8DA"/>
			<stop  offset="0.8788" style="stop-color:#9EA0A3"/>
		</radialGradient>
		<circle fill="url(#SVGID_2_)" cx="48.7" cy="52" r="38.7"/>
		
			<radialGradient id="SVGID_3_" cx="279.6147" cy="812.7432" r="276.0358" gradientTransform="matrix(0.2516 0 0 0.2516 -20.9561 -150.439)" gradientUnits="userSpaceOnUse">
			<stop  offset="2.424240e-02" style="stop-color:#FFFFFF"/>
			<stop  offset="0.1979" style="stop-color:#FAFAFA"/>
			<stop  offset="0.414" style="stop-color:#EAEBEC"/>
			<stop  offset="0.5939" style="stop-color:#D8D9DB"/>
			<stop  offset="0.8788" style="stop-color:#A2A3A6"/>
		</radialGradient>
		<circle fill="url(#SVGID_3_)" cx="48.5" cy="52.4" r="37.7"/>
		
			<radialGradient id="SVGID_4_" cx="250.1557" cy="719.7725" r="243.4772" gradientTransform="matrix(0.2774 0 0 0.2774 -20.2334 -145.2514)" gradientUnits="userSpaceOnUse">
			<stop  offset="2.424240e-02" style="stop-color:#FFFFFF"/>
			<stop  offset="0.2006" style="stop-color:#FAFAFA"/>
			<stop  offset="0.4201" style="stop-color:#EAEBEC"/>
			<stop  offset="0.5939" style="stop-color:#D9DBDC"/>
			<stop  offset="0.8788" style="stop-color:#A5A7A9"/>
		</radialGradient>
		<circle fill="url(#SVGID_4_)" cx="48.3" cy="52.8" r="36.6"/>
		
			<radialGradient id="SVGID_5_" cx="225.7111" cy="642.6266" r="216.4604" gradientTransform="matrix(0.3032 0 0 0.3032 -19.5108 -140.0639)" gradientUnits="userSpaceOnUse">
			<stop  offset="2.424240e-02" style="stop-color:#FFFFFF"/>
			<stop  offset="0.2064" style="stop-color:#FAFAFA"/>
			<stop  offset="0.4331" style="stop-color:#EAEBEB"/>
			<stop  offset="0.5939" style="stop-color:#DBDCDD"/>
			<stop  offset="0.8788" style="stop-color:#A8AAAC"/>
		</radialGradient>
		<circle fill="url(#SVGID_5_)" cx="48.1" cy="53.2" r="35.6"/>
		
			<radialGradient id="SVGID_6_" cx="205.1009" cy="577.5821" r="193.6816" gradientTransform="matrix(0.329 0 0 0.329 -18.7882 -134.8763)" gradientUnits="userSpaceOnUse">
			<stop  offset="2.424240e-02" style="stop-color:#FFFFFF"/>
			<stop  offset="0.2095" style="stop-color:#FAFAFA"/>
			<stop  offset="0.4401" style="stop-color:#EAEBEC"/>
			<stop  offset="0.5939" style="stop-color:#DCDDDF"/>
			<stop  offset="0.8788" style="stop-color:#ABADAF"/>
		</radialGradient>
		<circle fill="url(#SVGID_6_)" cx="47.9" cy="53.7" r="34.5"/>
		
			<radialGradient id="SVGID_7_" cx="187.4886" cy="521.9985" r="174.216" gradientTransform="matrix(0.3548 0 0 0.3548 -18.0656 -129.6888)" gradientUnits="userSpaceOnUse">
			<stop  offset="2.424240e-02" style="stop-color:#FFFFFF"/>
			<stop  offset="0.2127" style="stop-color:#FAFAFA"/>
			<stop  offset="0.4473" style="stop-color:#EAECEC"/>
			<stop  offset="0.5939" style="stop-color:#DDDFE0"/>
			<stop  offset="0.8788" style="stop-color:#AEB0B2"/>
		</radialGradient>
		<circle fill="url(#SVGID_7_)" cx="47.7" cy="54.1" r="33.5"/>
		
			<radialGradient id="SVGID_8_" cx="172.2643" cy="473.9518" r="157.3898" gradientTransform="matrix(0.3806 0 0 0.3806 -17.3429 -124.5012)" gradientUnits="userSpaceOnUse">
			<stop  offset="2.424240e-02" style="stop-color:#FFFFFF"/>
			<stop  offset="0.2197" style="stop-color:#FAFAFA"/>
			<stop  offset="0.463" style="stop-color:#EAEBEC"/>
			<stop  offset="0.5939" style="stop-color:#DFE0E1"/>
			<stop  offset="0.8788" style="stop-color:#B2B3B5"/>
		</radialGradient>
		<circle fill="url(#SVGID_8_)" cx="47.5" cy="54.5" r="32.5"/>
		
			<radialGradient id="SVGID_9_" cx="158.9734" cy="432.0062" r="142.7003" gradientTransform="matrix(0.4065 0 0 0.4065 -16.6203 -119.3137)" gradientUnits="userSpaceOnUse">
			<stop  offset="2.424240e-02" style="stop-color:#FFFFFF"/>
			<stop  offset="0.2235" style="stop-color:#FAFAFA"/>
			<stop  offset="0.4714" style="stop-color:#EAEBEC"/>
			<stop  offset="0.5939" style="stop-color:#E0E1E2"/>
			<stop  offset="0.8788" style="stop-color:#B5B6B8"/>
		</radialGradient>
		<circle fill="url(#SVGID_9_)" cx="47.2" cy="54.9" r="31.4"/>
		
			<radialGradient id="SVGID_10_" cx="147.2693" cy="395.069" r="129.7648" gradientTransform="matrix(0.4323 0 0 0.4323 -15.8977 -114.1261)" gradientUnits="userSpaceOnUse">
			<stop  offset="2.424240e-02" style="stop-color:#FFFFFF"/>
			<stop  offset="0.2274" style="stop-color:#FAFAFA"/>
			<stop  offset="0.4802" style="stop-color:#EAEBEC"/>
			<stop  offset="0.5939" style="stop-color:#E1E2E4"/>
			<stop  offset="0.8788" style="stop-color:#B8BABB"/>
		</radialGradient>
		<circle fill="url(#SVGID_10_)" cx="47" cy="55.3" r="30.4"/>
		
			<radialGradient id="SVGID_11_" cx="136.8841" cy="362.2938" r="118.2868" gradientTransform="matrix(0.4581 0 0 0.4581 -15.1751 -108.9386)" gradientUnits="userSpaceOnUse">
			<stop  offset="2.424240e-02" style="stop-color:#FFFFFF"/>
			<stop  offset="0.2359" style="stop-color:#FAFAFA"/>
			<stop  offset="0.4995" style="stop-color:#EAEBEC"/>
			<stop  offset="0.5939" style="stop-color:#E3E4E5"/>
			<stop  offset="0.8788" style="stop-color:#BBBDBE"/>
		</radialGradient>
		<circle fill="url(#SVGID_11_)" cx="46.8" cy="55.7" r="29.4"/>
		
			<radialGradient id="SVGID_12_" cx="127.6066" cy="333.0146" r="108.0331" gradientTransform="matrix(0.4839 0 0 0.4839 -14.4525 -103.751)" gradientUnits="userSpaceOnUse">
			<stop  offset="2.424240e-02" style="stop-color:#FFFFFF"/>
			<stop  offset="0.2406" style="stop-color:#FAFAFA"/>
			<stop  offset="0.5099" style="stop-color:#EAEBEC"/>
			<stop  offset="0.5939" style="stop-color:#E4E5E6"/>
			<stop  offset="0.8788" style="stop-color:#BFC0C2"/>
		</radialGradient>
		<circle fill="url(#SVGID_12_)" cx="46.6" cy="56.1" r="28.3"/>
		
			<radialGradient id="SVGID_13_" cx="119.2686" cy="306.7003" r="98.8178" gradientTransform="matrix(0.5097 0 0 0.5097 -13.7298 -98.5635)" gradientUnits="userSpaceOnUse">
			<stop  offset="2.424240e-02" style="stop-color:#FFFFFF"/>
			<stop  offset="0.2508" style="stop-color:#FAFAFA"/>
			<stop  offset="0.5328" style="stop-color:#EAEAEB"/>
			<stop  offset="0.5939" style="stop-color:#E6E6E7"/>
			<stop  offset="0.8788" style="stop-color:#C2C3C5"/>
		</radialGradient>
		<circle fill="url(#SVGID_13_)" cx="46.4" cy="56.6" r="27.3"/>
		
			<radialGradient id="SVGID_14_" cx="111.7343" cy="282.9224" r="90.4907" gradientTransform="matrix(0.5355 0 0 0.5355 -13.0072 -93.3759)" gradientUnits="userSpaceOnUse">
			<stop  offset="2.424240e-02" style="stop-color:#FFFFFF"/>
			<stop  offset="0.2564" style="stop-color:#FAFAFA"/>
			<stop  offset="0.5454" style="stop-color:#EAEBEC"/>
			<stop  offset="0.5939" style="stop-color:#E7E8E9"/>
			<stop  offset="0.8788" style="stop-color:#C5C6C8"/>
		</radialGradient>
		<circle fill="url(#SVGID_14_)" cx="46.2" cy="57" r="26.3"/>
		
			<radialGradient id="SVGID_15_" cx="104.8928" cy="261.331" r="82.9293" gradientTransform="matrix(0.5613 0 0 0.5613 -12.2846 -88.1884)" gradientUnits="userSpaceOnUse">
			<stop  offset="2.424240e-02" style="stop-color:#FFFFFF"/>
			<stop  offset="0.2624" style="stop-color:#FAFAFA"/>
			<stop  offset="0.5588" style="stop-color:#EAEBEC"/>
			<stop  offset="0.5939" style="stop-color:#E8E9EA"/>
			<stop  offset="0.8788" style="stop-color:#C8C9CB"/>
		</radialGradient>
		<circle fill="url(#SVGID_15_)" cx="46" cy="57.4" r="25.2"/>
		
			<radialGradient id="SVGID_16_" cx="98.6527" cy="241.6377" r="76.0326" gradientTransform="matrix(0.5871 0 0 0.5871 -11.562 -83.0008)" gradientUnits="userSpaceOnUse">
			<stop  offset="2.424240e-02" style="stop-color:#FFFFFF"/>
			<stop  offset="0.2757" style="stop-color:#FAFAFA"/>
			<stop  offset="0.5888" style="stop-color:#EAEAEB"/>
			<stop  offset="0.5939" style="stop-color:#EAEAEB"/>
			<stop  offset="0.8788" style="stop-color:#CBCDCE"/>
		</radialGradient>
		<circle fill="url(#SVGID_16_)" cx="45.8" cy="57.8" r="24.2"/>
		
			<radialGradient id="SVGID_17_" cx="92.9381" cy="223.6028" r="69.7167" gradientTransform="matrix(0.6129 0 0 0.6129 -10.8393 -77.8133)" gradientUnits="userSpaceOnUse">
			<stop  offset="2.424240e-02" style="stop-color:#FFFFFF"/>
			<stop  offset="0.2831" style="stop-color:#FAFAFA"/>
			<stop  offset="0.5939" style="stop-color:#EBECEC"/>
			<stop  offset="0.8788" style="stop-color:#CFD0D1"/>
		</radialGradient>
		<circle fill="url(#SVGID_17_)" cx="45.6" cy="58.2" r="23.2"/>
		
			<radialGradient id="SVGID_18_" cx="87.6853" cy="207.0253" r="63.9112" gradientTransform="matrix(0.6387 0 0 0.6387 -10.1167 -72.6257)" gradientUnits="userSpaceOnUse">
			<stop  offset="2.424240e-02" style="stop-color:#FFFFFF"/>
			<stop  offset="0.2912" style="stop-color:#FAFAFA"/>
			<stop  offset="0.5939" style="stop-color:#ECEDEE"/>
			<stop  offset="0.8788" style="stop-color:#D2D3D4"/>
		</radialGradient>
		<circle fill="url(#SVGID_18_)" cx="45.4" cy="58.6" r="22.1"/>
		
			<radialGradient id="SVGID_19_" cx="82.8405" cy="191.7353" r="58.5566" gradientTransform="matrix(0.6645 0 0 0.6645 -9.3941 -67.4382)" gradientUnits="userSpaceOnUse">
			<stop  offset="2.424240e-02" style="stop-color:#FFFFFF"/>
			<stop  offset="0.3094" style="stop-color:#FAFAFA"/>
			<stop  offset="0.5939" style="stop-color:#EEEEEF"/>
			<stop  offset="0.8788" style="stop-color:#D5D6D7"/>
		</radialGradient>
		<circle fill="url(#SVGID_19_)" cx="45.2" cy="59" r="21.1"/>
		
			<radialGradient id="SVGID_20_" cx="78.3579" cy="177.5885" r="53.6023" gradientTransform="matrix(0.6903 0 0 0.6903 -8.6715 -62.2506)" gradientUnits="userSpaceOnUse">
			<stop  offset="2.424240e-02" style="stop-color:#FFFFFF"/>
			<stop  offset="0.32" style="stop-color:#FAFAFA"/>
			<stop  offset="0.5939" style="stop-color:#EFEFF0"/>
			<stop  offset="0.8788" style="stop-color:#D8D9DA"/>
		</radialGradient>
		<circle fill="url(#SVGID_20_)" cx="44.9" cy="59.5" r="20.1"/>
		
			<radialGradient id="SVGID_21_" cx="74.1984" cy="164.4613" r="49.0051" gradientTransform="matrix(0.7161 0 0 0.7161 -7.9489 -57.0631)" gradientUnits="userSpaceOnUse">
			<stop  offset="2.424240e-02" style="stop-color:#FFFFFF"/>
			<stop  offset="0.3316" style="stop-color:#FAFAFA"/>
			<stop  offset="0.5939" style="stop-color:#F0F1F1"/>
			<stop  offset="0.8788" style="stop-color:#DCDCDD"/>
		</radialGradient>
		<circle fill="url(#SVGID_21_)" cx="44.7" cy="59.9" r="19"/>
		
			<radialGradient id="SVGID_22_" cx="70.3282" cy="152.2473" r="44.7277" gradientTransform="matrix(0.7419 0 0 0.7419 -7.2262 -51.8755)" gradientUnits="userSpaceOnUse">
			<stop  offset="2.424240e-02" style="stop-color:#FFFFFF"/>
			<stop  offset="0.3591" style="stop-color:#FAFAFA"/>
			<stop  offset="0.5939" style="stop-color:#F2F2F3"/>
			<stop  offset="0.8788" style="stop-color:#DFDFE0"/>
		</radialGradient>
		<circle fill="url(#SVGID_22_)" cx="44.5" cy="60.3" r="18"/>
		
			<radialGradient id="SVGID_23_" cx="66.7182" cy="140.8544" r="40.7379" gradientTransform="matrix(0.7677 0 0 0.7677 -6.5036 -46.688)" gradientUnits="userSpaceOnUse">
			<stop  offset="2.424240e-02" style="stop-color:#FFFFFF"/>
			<stop  offset="0.3755" style="stop-color:#FAFAFA"/>
			<stop  offset="0.5939" style="stop-color:#F3F3F4"/>
			<stop  offset="0.8788" style="stop-color:#E2E3E3"/>
		</radialGradient>
		<circle fill="url(#SVGID_23_)" cx="44.3" cy="60.7" r="17"/>
		
			<radialGradient id="SVGID_24_" cx="63.3431" cy="130.2025" r="37.0076" gradientTransform="matrix(0.7935 0 0 0.7935 -5.781 -41.5004)" gradientUnits="userSpaceOnUse">
			<stop  offset="2.424240e-02" style="stop-color:#FFFFFF"/>
			<stop  offset="0.3943" style="stop-color:#FAFAFA"/>
			<stop  offset="0.5939" style="stop-color:#F4F5F5"/>
			<stop  offset="0.8788" style="stop-color:#E5E6E6"/>
		</radialGradient>
		<circle fill="url(#SVGID_24_)" cx="44.1" cy="61.1" r="15.9"/>
		
			<radialGradient id="SVGID_25_" cx="60.1805" cy="120.2216" r="33.5122" gradientTransform="matrix(0.8194 0 0 0.8194 -5.0584 -36.3129)" gradientUnits="userSpaceOnUse">
			<stop  offset="2.424240e-02" style="stop-color:#FFFFFF"/>
			<stop  offset="0.4415" style="stop-color:#FAFAFA"/>
			<stop  offset="0.5939" style="stop-color:#F6F6F6"/>
			<stop  offset="0.8788" style="stop-color:#E8E9E9"/>
		</radialGradient>
		<circle fill="url(#SVGID_25_)" cx="43.9" cy="61.5" r="14.9"/>
		
			<radialGradient id="SVGID_26_" cx="57.211" cy="110.8502" r="30.2303" gradientTransform="matrix(0.8452 0 0 0.8452 -4.3357 -31.1253)" gradientUnits="userSpaceOnUse">
			<stop  offset="2.424240e-02" style="stop-color:#FFFFFF"/>
			<stop  offset="0.472" style="stop-color:#FAFAFA"/>
			<stop  offset="0.5939" style="stop-color:#F7F7F8"/>
			<stop  offset="0.8788" style="stop-color:#ECECED"/>
		</radialGradient>
		<circle fill="url(#SVGID_26_)" cx="43.7" cy="62" r="13.9"/>
		
			<radialGradient id="SVGID_27_" cx="54.4176" cy="102.0342" r="27.1429" gradientTransform="matrix(0.871 0 0 0.871 -3.6131 -25.9378)" gradientUnits="userSpaceOnUse">
			<stop  offset="2.424240e-02" style="stop-color:#FFFFFF"/>
			<stop  offset="0.5092" style="stop-color:#FAFAFA"/>
			<stop  offset="0.5939" style="stop-color:#F8F9F9"/>
			<stop  offset="0.8788" style="stop-color:#EFEFF0"/>
		</radialGradient>
		<circle fill="url(#SVGID_27_)" cx="43.5" cy="62.4" r="12.8"/>
		
			<radialGradient id="SVGID_28_" cx="51.7849" cy="93.7255" r="24.2332" gradientTransform="matrix(0.8968 0 0 0.8968 -2.8905 -20.7502)" gradientUnits="userSpaceOnUse">
			<stop  offset="2.424240e-02" style="stop-color:#FFFFFF"/>
			<stop  offset="0.5939" style="stop-color:#FAFAFA"/>
			<stop  offset="0.8788" style="stop-color:#F2F2F3"/>
		</radialGradient>
		<circle fill="url(#SVGID_28_)" cx="43.3" cy="62.8" r="11.8"/>
		
			<radialGradient id="SVGID_29_" cx="49.2994" cy="85.8817" r="21.4862" gradientTransform="matrix(0.9226 0 0 0.9226 -2.1679 -15.5627)" gradientUnits="userSpaceOnUse">
			<stop  offset="2.424240e-02" style="stop-color:#FFFFFF"/>
			<stop  offset="0.5939" style="stop-color:#FBFBFB"/>
			<stop  offset="0.8788" style="stop-color:#F5F6F6"/>
		</radialGradient>
		<circle fill="url(#SVGID_29_)" cx="43.1" cy="63.2" r="10.7"/>
		
			<radialGradient id="SVGID_30_" cx="46.9493" cy="78.4647" r="18.8888" gradientTransform="matrix(0.9484 0 0 0.9484 -1.4452 -10.3751)" gradientUnits="userSpaceOnUse">
			<stop  offset="2.424240e-02" style="stop-color:#FFFFFF"/>
			<stop  offset="0.5939" style="stop-color:#FCFCFD"/>
			<stop  offset="0.8788" style="stop-color:#F9F9F9"/>
		</radialGradient>
		<circle fill="url(#SVGID_30_)" cx="42.8" cy="63.6" r="9.7"/>
		
			<radialGradient id="SVGID_31_" cx="44.7236" cy="71.4407" r="16.429" gradientTransform="matrix(0.9742 0 0 0.9742 -0.7226 -5.1876)" gradientUnits="userSpaceOnUse">
			<stop  offset="2.424240e-02" style="stop-color:#FFFFFF"/>
			<stop  offset="0.5939" style="stop-color:#FEFEFE"/>
			<stop  offset="0.8788" style="stop-color:#FCFCFC"/>
		</radialGradient>
		<circle fill="url(#SVGID_31_)" cx="42.6" cy="64" r="8.7"/>
		<circle fill="#FFFFFF" cx="42.4" cy="64.4" r="7.6"/>
	</g>
	<path fill="#CCCCCC" d="M28.2,67.2l34.7,25.9L92.7,62L72.2,35.5c0.1,0-6.8,17.5-9.5,16.8c-1.4-0.4-7.9-9.8-9.3-10
		c-0.1,0-0.1,0-0.2,0l-1,7l-2.5,11.2l-17.2,4L28.2,67.2z"/>
	
		<radialGradient id="SVGID_32_" cx="608.992" cy="808.2997" r="592.5718" gradientTransform="matrix(0.2 0 0 0.2 -22.4013 -160.8141)" gradientUnits="userSpaceOnUse">
		<stop  offset="0" style="stop-color:#B0B0B0"/>
		<stop  offset="0.1007" style="stop-color:#C7C7C7"/>
		<stop  offset="0.2346" style="stop-color:#DDDDDD"/>
		<stop  offset="0.3795" style="stop-color:#EDEDED"/>
		<stop  offset="0.5418" style="stop-color:#F7F7F7"/>
		<stop  offset="0.7576" style="stop-color:#FAFAFA"/>
	</radialGradient>
	<path fill="url(#SVGID_32_)" d="M49.9,3.1C23.6,3.1,2.3,24.4,2.3,50.6c0,26.2,21.3,47.5,47.5,47.5c26.2,0,47.5-21.3,47.5-47.5
		C97.4,24.4,76.1,3.1,49.9,3.1z M49.9,87.8c-20.5,0-37.1-16.6-37.1-37.1c0-20.5,16.6-37.1,37.1-37.1C70.4,13.5,87,30.1,87,50.6
		C87,71.1,70.4,87.8,49.9,87.8z"/>
	
		<radialGradient id="SVGID_33_" cx="649.116" cy="730.3397" r="742.4896" gradientTransform="matrix(0.2 0 0 0.2 -22.4013 -160.8141)" gradientUnits="userSpaceOnUse">
		<stop  offset="0.2424" style="stop-color:#FFFFFF"/>
		<stop  offset="0.4527" style="stop-color:#FCFCFC"/>
		<stop  offset="0.6109" style="stop-color:#F2F2F2"/>
		<stop  offset="0.7522" style="stop-color:#E2E2E2"/>
		<stop  offset="0.8827" style="stop-color:#CCCCCC"/>
		<stop  offset="1" style="stop-color:#B0B0B0"/>
	</radialGradient>
	<path fill="url(#SVGID_33_)" d="M50,0C22.4,0,0,22.4,0,50c0,27.6,22.4,50,50,50c27.6,0,50-22.4,50-50C100,22.4,77.6,0,50,0z
		 M50,89.1c-21.6,0-39.1-17.5-39.1-39.1c0-21.6,17.5-39.1,39.1-39.1S89.1,28.4,89.1,50C89.1,71.6,71.6,89.1,50,89.1z"/>
</g>
<rect x="28.2" y="35.5" fill-rule="evenodd" clip-rule="evenodd" fill="#FFFFFF" width="44" height="31.8"/>
<g>
	<g>
		<path fill="#333333" d="M33.4,37.5c1.2,0,2.2,1,2.2,2.2s-1,2.2-2.2,2.2s-2.2-1-2.2-2.2S32.1,37.5,33.4,37.5 M33.4,37.2
			c-1.4,0-2.5,1.1-2.5,2.5c0,1.4,1.1,2.5,2.5,2.5s2.5-1.1,2.5-2.5C35.9,38.4,34.8,37.2,33.4,37.2L33.4,37.2z"/>
	</g>
	<g>
		<path fill="#333333" d="M33.4,44.9c1.2,0,2.2,1,2.2,2.2s-1,2.2-2.2,2.2s-2.2-1-2.2-2.2S32.1,44.9,33.4,44.9 M33.4,44.7
			c-1.4,0-2.5,1.1-2.5,2.5c0,1.4,1.1,2.5,2.5,2.5s2.5-1.1,2.5-2.5C35.9,45.8,34.8,44.7,33.4,44.7L33.4,44.7z"/>
	</g>
	<g>
		<path fill="#333333" d="M33.4,52.3c1.2,0,2.2,1,2.2,2.2s-1,2.2-2.2,2.2s-2.2-1-2.2-2.2S32.1,52.3,33.4,52.3 M33.4,52.1
			c-1.4,0-2.5,1.1-2.5,2.5c0,1.4,1.1,2.5,2.5,2.5s2.5-1.1,2.5-2.5C35.9,53.2,34.8,52.1,33.4,52.1L33.4,52.1z"/>
	</g>
	<g>
		<path fill="#333333" d="M33.4,59.7c1.2,0,2.2,1,2.2,2.2s-1,2.2-2.2,2.2s-2.2-1-2.2-2.2S32.1,59.7,33.4,59.7 M33.4,59.5
			c-1.4,0-2.5,1.1-2.5,2.5c0,1.4,1.1,2.5,2.5,2.5s2.5-1.1,2.5-2.5C35.9,60.6,34.8,59.5,33.4,59.5L33.4,59.5z"/>
	</g>
	<g>
		<line fill="none" stroke="#333333" stroke-width="0.5" stroke-miterlimit="10" x1="40.1" y1="39.9" x2="70.1" y2="39.9"/>
	</g>
	<g>
		<line fill="none" stroke="#333333" stroke-width="0.5" stroke-miterlimit="10" x1="40.2" y1="47.2" x2="70.2" y2="47.2"/>
	</g>
	<g>
		<line fill="none" stroke="#333333" stroke-width="0.5" stroke-miterlimit="10" x1="40" y1="54.5" x2="70" y2="54.5"/>
	</g>
	<g>
		<line fill="none" stroke="#333333" stroke-width="0.5" stroke-miterlimit="10" x1="40" y1="62" x2="70" y2="62"/>
	</g>
</g>
</svg>
