<?xml version="1.0" encoding="utf-8"?>
<!-- Generator: Adobe Illustrator 21.1.0, SVG Export Plug-In . SVG Version: 6.00 Build 0)  -->
<svg version="1.1" id="Layer_1" xmlns="http://www.w3.org/2000/svg" xmlns:xlink="http://www.w3.org/1999/xlink" x="0px" y="0px"
	 viewBox="0 0 500 502.1" style="enable-background:new 0 0 500 502.1;" xml:space="preserve">
<style type="text/css">
	.st0{fill:#084FFF;}
</style>
<g transform="translate(0,-952.36218)">
	<path class="st0" d="M249.5,1032.8c-59.1,0-107.6,46.6-107.6,104.2c-0.1,6.3,4.9,11.4,11.2,11.5c6.3,0.1,11.4-4.9,11.5-11.2
		c0-0.1,0-0.2,0-0.3c0-44.9,37.7-81.5,84.9-81.5c23.6,0,47.3,9.6,63.5,24.5c16.3,14.9,25,34.1,21.5,55.1c0,0,0,0,0,0
		c-7.6,45.8-28.2,53.5-51.8,68c-11.8,7.3-24.6,16-33.3,31.2c-8.7,15.2-12.7,35.7-10.4,65.2c0.4,6.3,5.8,11,12.1,10.6
		c6.3-0.4,11-5.8,10.6-12.1c0-0.1,0-0.2,0-0.3c-2.1-26.6,1.7-41.9,7.5-52.1c5.8-10.2,14.4-16.3,25.5-23.1
		c22.2-13.6,53.6-30.8,62.4-83.7c0,0,0,0,0,0c4.9-29.5-7.9-56.7-28.5-75.6C307.8,1044.3,279.1,1032.8,249.5,1032.8L249.5,1032.8z"/>
	<path class="st0" d="M250,1330.4c-12.4,0-22.7,10.4-22.7,22.7c0,12.4,10.2,22.7,22.7,22.7s22.7-10.3,22.7-22.7
		C272.7,1340.7,262.4,1330.4,250,1330.4z"/>
	<path class="st0" d="M250,952.4c-138,0-250,112.6-250,251.1c0,138.5,112,251,250,251s250-112.5,250-251S388,952.4,250,952.4
		L250,952.4z M250,975.1c125.6,0,227.3,102.1,227.3,228.4S375.6,1431.7,250,1431.7s-227.3-102-227.3-228.3
		C22.7,1077.2,124.4,975.1,250,975.1z"/>
</g>
</svg>
