<?xml version="1.0" encoding="utf-8"?>
<!-- Generator: Adobe Illustrator 21.1.0, SVG Export Plug-In . SVG Version: 6.00 Build 0)  -->
<svg version="1.1" id="Layer_1" xmlns="http://www.w3.org/2000/svg" xmlns:xlink="http://www.w3.org/1999/xlink" x="0px" y="0px"
	 viewBox="0 0 500 477.1" style="enable-background:new 0 0 500 477.1;" xml:space="preserve">
<style type="text/css">
	.st0{fill:#EF9E0F;}
	.st1{fill:#FC3838;}
	.st2{fill:#6699FF;}
</style>
<g>
	<path class="st0" d="M193,320c7.7-6.2,12.6-10.2,20.6-16.7c7.1,30.4,13.6,58.4,20.9,89.7c-30.9-9.4-58.3-17.8-88-26.9
		c5-5.2,8.2-9.4,12.2-12.4c7.6-5.7,6.8-10.6,1.5-17.9c-24.2-33.1-44.4-68.6-55.8-108.3c-10.7-37.2-15.8-75.1-6.1-113.2
		c14.9-58.2,53-94.2,110.6-109.1c97.8-25.4,171.2,46.9,178.8,133c0.2,2.3,0,4.6,0.2,6.9c0.6,8.7-1.7,10.7-11.3,8.8
		c-17.7-3.6-26.1-10.7-30-30.3c-8.8-44.2-35.4-75.4-81.5-84.1c-48.6-9.1-116.9,18.4-130.7,86.4c-10.1,49.8,3.9,95.4,25.8,139.2
		c8,16,18.3,30.7,27.6,46C189.5,313.9,191.2,316.9,193,320z"/>
	<path class="st1" d="M229.1,194.4c1,7.4,1.9,14.3,3.1,23.5c-29-8.8-56.1-17.1-86.4-26.3c23-21.4,44.2-41.1,67-62.3
		c1.5,5.9,2.4,9.5,3.3,13.1c3.6,15.5,3.5,15.3,19.5,13.6c54-5.7,106.9-1.6,157.6,19.2c39.2,16.1,71.9,40,91.6,79
		c36.3,72.1,5.9,166.2-66.3,199.5c-47.3,21.8-94.4,17-139.5-8.5c-1.3-0.8-2.8-1.4-2.9-1.4c8.3-9.3,15.1-17.9,23.1-25.3
		c1.7-1.6,7.7,0.6,11.3,2c36.3,14.4,72.3,14.8,105.3-7c37.4-24.8,49.8-62.9,46.3-105.8c-3.6-44.1-30.2-73-68.4-92
		c-50.3-24.9-103.7-29.5-158.7-22.9C233,193,231.3,193.8,229.1,194.4z"/>
	<path class="st2" d="M297.8,277.5c22.5-20.8,43.1-39.9,65.7-60.8c6.9,29.8,13.3,57.3,20.2,86.9c-7.4-1.8-13.1-2.4-18-4.6
		c-7.5-3.3-10.2-0.6-13.8,6.1c-14.9,27-28.7,55-46.7,79.9c-29,40.1-66.1,71.4-114.5,86.1C108.8,495.9,18.4,441.9,2.6,357.6
		c-8.9-47.5,5.7-89.4,39.4-124c11.5-11.8,25-21.8,39.5-34.3c3.8,14,7.2,24.1,8.8,34.5c0.4,2.8-4.4,7.1-7.6,9.7
		c-35.3,28.2-53.6,63.6-44.4,109.4c11.2,56.1,83.1,113.9,159.4,77.4c48.7-23.3,81.2-62.6,106.8-108.6c4.8-8.7,8.5-18,13.6-26.5
		c5.2-8.6,1.3-11.6-6.5-13.5C307.9,280.8,304.3,279.5,297.8,277.5z"/>
</g>
</svg>
