<?xml version="1.0" encoding="utf-8"?>
<!-- Generator: Adobe Illustrator 21.1.0, SVG Export Plug-In . SVG Version: 6.00 Build 0)  -->
<svg version="1.1" id="Layer_1" xmlns="http://www.w3.org/2000/svg" xmlns:xlink="http://www.w3.org/1999/xlink" x="0px" y="0px"
	 viewBox="0 0 500 500" style="enable-background:new 0 0 500 500;" xml:space="preserve">
<style type="text/css">
	.st0{fill:#C190F4;}
</style>
<g>
	<path class="st0" d="M197.2,222.2h0.7c3.8,0,6.9-3.1,6.9-6.9c0-3.8-3.1-6.9-6.9-6.9H93.8c-3.8,0-6.9,3.1-6.9,6.9
		c0,3.8,3.1,6.9,6.9,6.9h35.4c3.2,15.8,17.2,27.8,34,27.8S194,238.1,197.2,222.2z"/>
	<path class="st0" d="M250,0C112.1,0,0,112.1,0,250s112.1,250,250,250s250-112.1,250-250S387.9,0,250,0z M250,486.1
		C119.8,486.1,13.9,380.2,13.9,250S119.8,13.9,250,13.9S486.1,119.8,486.1,250S380.2,486.1,250,486.1z"/>
	<path class="st0" d="M250,312.5c-55.7,0-74.9,37-75.7,38.6c-1.7,3.4-0.3,7.6,3.1,9.3c3.4,1.7,7.6,0.3,9.3-3.1
		c0.2-0.3,16-30.9,63.2-30.9c46.8,0,62.6,29.7,63.2,30.9c1.2,2.4,3.7,3.8,6.2,3.8c1,0,2.1-0.2,3.1-0.7c3.4-1.7,4.8-5.9,3.1-9.3
		C324.9,349.5,305.7,312.5,250,312.5z"/>
	<path class="st0" d="M406.2,208.3H302.1c-3.8,0-6.9,3.1-6.9,6.9c0,3.8,3.1,6.9,6.9,6.9h35.4c3.2,15.8,17.2,27.8,34,27.8
		c16.8,0,30.8-11.9,34-27.8h0.7c3.8,0,6.9-3.1,6.9-6.9C413.2,211.4,410.1,208.3,406.2,208.3z"/>
</g>
</svg>
