<?xml version="1.0" encoding="utf-8"?>
<!-- Generator: Adobe Illustrator 21.1.0, SVG Export Plug-In . SVG Version: 6.00 Build 0)  -->
<svg version="1.1" id="Layer_1" xmlns="http://www.w3.org/2000/svg" xmlns:xlink="http://www.w3.org/1999/xlink" x="0px" y="0px"
	 viewBox="0 0 500 506.4" style="enable-background:new 0 0 500 506.4;" xml:space="preserve">
<style type="text/css">
	.st0{fill:#2F7AF4;}
	.st1{fill:#FF0D0D;}
	.st2{fill:#F40000;}
	.st3{fill:#666666;}
</style>
<g>
	<g>
		<path class="st0" d="M266.6,94.5c2.2,0.5,4.3,1.3,6.4,2.3L252.3,115c-2.3,2-3.8,5.9-3.5,9l7.6,74.7c0.3,2.7,1.9,6.4,3.7,8.4
			l117.1,133c2.3,2.6,5.8,4,9.3,3.6c2.2-0.2,4.2-1.2,5.9-2.6l104-91.6c2.2-1.9,3.4-4.5,3.6-7.4s-0.8-5.6-2.7-7.8l-117.1-133
			c-1.8-2.1-5.2-4.1-7.9-4.7l-73.1-17c-3-0.7-7.1,0.4-9.4,2.4l-12,10.5c-3.2-1.9-6.5-3.2-9.9-4c-19.5-4.5-36.3,10.1-37,10.7
			c-1.3,1.1-1.4,3.1-0.3,4.3c1.1,1.3,3.1,1.4,4.3,0.3C235.1,103.7,250.2,90.7,266.6,94.5z M278.3,100.3c3.1,2.4,5.9,5.5,8.7,9.2
			c-1.3,0.8-2.6,1.6-3.8,2.7c-9.6,8.5-10.6,23.2-2.1,32.9c5,5.7,12.5,8.6,20.1,7.8c4.8-0.5,9.2-2.5,12.8-5.7
			c9.6-8.5,10.6-23.2,2.1-32.9c-5-5.7-12.5-8.6-20.1-7.8c-1.1,0.1-2.1,0.3-3.1,0.6c-3-4.4-6.3-8.1-9.8-11l10.9-9.6
			c0.4-0.4,1.5-0.9,2.7-1c0.6-0.1,1,0,1.2,0l73.1,17c1.5,0.3,3.7,1.7,4.7,2.8l117.1,133c0.8,0.9,1.2,2.1,1.1,3.4
			c-0.1,1.2-0.6,2.4-1.6,3.2l-104,91.6c-0.7,0.6-1.6,1-2.5,1.1c-1.5,0.2-3-0.4-4-1.5l-117.1-133c-1-1.1-2-3.5-2.2-5l-7.6-74.7
			c-0.1-1.1,0.6-3,1.5-3.7L278.3,100.3z M301.8,123.8c-1.7-4-3.5-7.7-5.4-11.1c0.1,0,0.2,0,0.3-0.1c5.6-0.6,11.1,1.5,14.8,5.7
			c6.2,7.1,5.6,17.9-1.5,24.2c-2.7,2.3-5.9,3.8-9.4,4.2c-5.6,0.6-11.1-1.5-14.8-5.7c-6.2-7.1-5.6-17.9,1.5-24.2c1-0.8,2-1.5,3.1-2.1
			c2,3.4,4,7.3,5.8,11.5c0.5,1.3,1.9,2,3.2,1.9c0.3,0,0.6-0.1,0.9-0.2C301.7,127.2,302.4,125.4,301.8,123.8z"/>
		<g>
			<g>
				<path d="M397.9,265l6.1-7.9l-32-34.5l-8.3,5.5l-5.2-5.6l16.1-14.9l38.3,41.4l8.3-5.5l5.2,5.6l-23.3,21.6L397.9,265z
					 M362.9,195.3l-8.8,8.2l-8.4-9l8.8-8.2L362.9,195.3z"/>
			</g>
		</g>
	</g>
	<g>
		<path class="st1" d="M57.5,111.7c-7.2,0-13.4-0.2-19.5,0.1c-5,0.2-7.2-1.7-7.2-6.8c0.1-24.2-0.5-48.4,0.3-72.6
			C31.7,13.4,46.3,0.2,65.5,0.1c43-0.2,86.1-0.2,129.1,0c19.5,0.1,33.9,13.7,34.3,33.2c0.6,23.6,0.1,47.3,0.2,70.9
			c0,5.3-1.8,7.8-7.4,7.5c-6.1-0.3-12.2-0.1-18.4-0.1c0,13.5-1.1,26.2,0.3,38.5c1.4,12.3,9.1,21.6,19.9,27.9
			c25.3,14.7,36.6,36.6,36.5,65.7c-0.3,74.8-0.1,149.6-0.1,224.5c0,25.5-12.8,38.2-38.5,38.2c-61.3,0-122.6,0-184,0
			c-24.4,0-37.5-13.1-37.5-37.5c0-75.7,0.1-151.3-0.1-227c0-28,11.6-49.2,35.9-63.4c14.2-8.4,21.5-21,21.7-37.6
			C57.6,131.6,57.5,122.3,57.5,111.7z M65.4,112.2c0,7-0.3,13.2,0.1,19.3c1.6,25.1-7.8,43.6-30.1,56.7c-22.5,13.2-33.1,43.3-26,66.8
			c80.7,0,161.5,0,242.2,0c3.4-35-5.3-52.9-33.6-71.2c-15.3-9.9-22.8-24.4-23.2-42.6c-0.2-9.5,0-19,0-29
			C151.3,112.2,109,112.2,65.4,112.2z M252.1,263.3c-81.6,0-162.5,0-243.7,0c0,43.1,0,85.4,0,127.9c81.4,0,162.2,0,243.7,0
			C252.1,348.3,252.1,306,252.1,263.3z M252.2,400.3c-82.3,0-163.1,0-244.3,0c0,23.5,0,46.3,0,69.1c0,19.4,9.6,29.1,28.9,29.2
			c25.3,0.1,50.6,0,75.9,0c37.4,0,74.8,0.1,112.2,0c17.1-0.1,27.1-10.2,27.3-27.3c0.1-6.2,0-12.4,0-18.6
			C252.2,435.3,252.2,417.9,252.2,400.3z M38.8,103.4c61,0,121.5,0,182.4,0c0-24.3,0.4-48-0.1-71.6c-0.3-13.3-11.4-23.8-24.9-23.8
			c-44.2-0.3-88.3-0.3-132.5,0C49.8,8.2,39.1,19,38.9,32.9C38.5,55.9,38.8,79,38.8,103.4z"/>
		<g>
			<path class="st2" d="M173.7,57.2c0-7-0.3-14,0.1-21c0.1-2,2.1-3.9,3.3-5.8c1.4,1.7,3.9,3.4,3.9,5.2c0.3,14.5,0.3,29.1,0,43.6
				c0,1.7-2.1,3.3-3.3,5c-1.3-1.7-3.8-3.4-3.9-5.2C173.5,71.7,173.7,64.5,173.7,57.2z"/>
			<path class="st2" d="M86.3,57.4c0,7,0.3,14-0.2,21c-0.1,2-2.1,3.9-3.2,5.8C81.5,82.4,79,80.8,79,79c-0.3-14.5-0.3-29.1,0-43.6
				c0-1.7,2.1-3.3,3.3-5c1.4,1.7,3.8,3.4,3.9,5.2C86.5,42.8,86.3,50.1,86.3,57.4z"/>
			<path class="st2" d="M126.3,57c0-7.3-0.2-14.5,0.2-21.8c0.1-1.7,2.2-3.2,3.4-4.8c1.3,1.5,3.6,3,3.7,4.5
				c0.3,14.8,0.3,29.6,0.1,44.4c0,1.6-2.2,3.2-3.4,4.8c-1.3-1.8-3.6-3.5-3.7-5.4C126,71.6,126.3,64.3,126.3,57z"/>
		</g>
		<g id="rx">
			<g>
				<path class="st3" d="M148.8,321.6c5.1,9.2,10.1,17.8,15.6,27.1c2.6-4.1,4.5-7.7,6.7-11.1c1-1.9,1.9-2.6,4.1-2.6
					c2.6,0,4.5,0,7.7,0c-1.9,3.1-3.6,6-5.7,9.2c-2.6,4.1-4.5,7.7-7,11.1c-0.7,1-0.7,1.9,0,3.1c4.1,6,7.7,12,11.8,18.7
					c0.7,0.7,0.7,1,1,1.6c-3.6,0-6.7,0-9.6,0c-0.7,0-1-0.7-1-1c-2.6-3.4-4.5-7.5-6.7-11.1c0-0.7-0.7-1-1-1.6
					c-2.6,4.5-5.1,8.6-7.7,12.7c-0.7,1-1.6,1.6-2.6,1.6c-2.6,0-5.7,0-8.6,0c0.7-1,1-1.9,1.9-3.1c3.6-5.7,7-11.8,10.8-17.2
					c0.7-1,1-1.9,0-3.1c-6-10.1-12.7-20.4-18.7-30.5c-1-1.6-1.6-1.9-3.1-1.9c-6,0-12,0-18.7,0c-1.6,0-1.9,0.7-1.9,1.9
					c0,10.1,0,20.4,0,30.9c0,1,0,1.9,0,3.1c-3.1,0-6,0-9.2,0c0-27.1,0-53.7,0-80.8c0.7,0,1.6,0,1.9,0c10.1,0,20.4,0,30.9,0
					c6,0,11.8,1.6,16.3,5.1c5.7,4.1,8.2,9.6,8.6,15.6C165.1,309.8,159.9,317.5,148.8,321.6z M116.4,314.9c8.2,0,16.3,0,23.8,0
					c6.7,0,14.3-4.5,14.6-13.7c0-6.7-1.9-11.8-8.2-13.7c-2.6-1-5.7-1.6-8.6-1.6c-6.7,0-13.7,0-20.4,0c-0.7,0-1,0-1.9,0
					C116.4,295.9,116.4,305.3,116.4,314.9z"/>
			</g>
		</g>
	</g>
</g>
</svg>
