<?xml version="1.0" encoding="utf-8"?>
<!-- Generator: Adobe Illustrator 21.1.0, SVG Export Plug-In . SVG Version: 6.00 Build 0)  -->
<svg version="1.1" id="Layer_1" xmlns="http://www.w3.org/2000/svg" xmlns:xlink="http://www.w3.org/1999/xlink" x="0px" y="0px"
	 viewBox="0 0 500 500" style="enable-background:new 0 0 500 500;" xml:space="preserve">
<style type="text/css">
	.st0{fill:#07D85B;}
</style>
<g>
	<path class="st0" d="M453.9,105.3c-3.2-4.5-9.4-5.5-13.9-2.3c-4.5,3.2-5.5,9.4-2.3,13.9h0c26.7,37.6,42.4,83.5,42.4,133.2
		c0,63.6-25.7,121-67.4,162.7c-41.7,41.7-99.1,67.4-162.7,67.4c-57.2,0-109.3-20.9-149.6-55.3l40-8.3c5.4-1.1,8.9-6.4,7.7-11.8
		c-1.1-5.4-6.4-8.9-11.8-7.7l-66.2,13.7l-1.2,67.6c-0.1,5.5,4.3,10.1,9.8,10.1c5.5,0.1,10-4.3,10.1-9.8l0.6-37
		C132.9,478,188.9,500,250,500c138.1,0,250-111.9,250-250C500,196.1,482.9,146.1,453.9,105.3z"/>
	<path class="st0" d="M19.9,250c0-63.6,25.7-121,67.4-162.7C129,45.7,186.4,19.9,250,19.9c56.1,0,107.4,20.1,147.3,53.4L360.2,81
		c-5.4,1.1-8.9,6.4-7.7,11.8c1.1,5.4,6.4,8.9,11.8,7.7l66.2-13.7l1.2-67.6c0.1-5.5-4.3-10-9.8-10.1c-5.5-0.1-10.1,4.3-10.1,9.8
		L411,58.7C367.5,22.1,311.3,0,250,0C111.9,0,0,111.9,0,250c0,51.5,15.6,99.5,42.4,139.3c3.1,4.6,9.3,5.8,13.8,2.7
		c4.6-3.1,5.8-9.3,2.7-13.8C34.3,341.6,19.9,297.5,19.9,250z"/>
	<path class="st0" d="M141.1,349c0,2.6,1.1,5.2,2.9,7.1s4.4,2.9,7.1,2.9h199.4c2.6,0,5.2-1.1,7.1-2.9c1.9-1.9,2.9-4.4,2.9-7.1
		c0-46.9-29.5-86.9-71-102.5c16.2-11.9,26.7-31,26.7-52.6c0-36.1-29.3-65.4-65.4-65.4c-36.1,0-65.4,29.3-65.4,65.4
		c0,21.6,10.5,40.7,26.7,52.6C170.6,262.1,141.1,302,141.1,349z M218.6,226c-8.2-8.2-13.3-19.5-13.3-32.1c0-12.6,5.1-23.9,13.3-32.1
		c8.2-8.2,19.5-13.3,32.1-13.3c12.6,0,23.9,5.1,32.1,13.3c8.2,8.2,13.3,19.5,13.3,32.1c0,12.6-5.1,23.9-13.3,32.1
		c-8.2,8.2-19.5,13.3-32.1,13.3C238.2,239.3,226.9,234.2,218.6,226z M250.7,259.2c24.8,0,47.2,10,63.5,26.3
		c14,14.1,23.4,32.7,25.7,53.5H161.6c2.3-20.8,11.6-39.4,25.7-53.5C203.6,269.3,225.9,259.2,250.7,259.2z"/>
</g>
</svg>
