<?xml version="1.0" encoding="utf-8"?>
<!-- Generator: Adobe Illustrator 21.0.0, SVG Export Plug-In . SVG Version: 6.00 Build 0)  -->
<svg version="1.1" id="Layer_1" xmlns="http://www.w3.org/2000/svg" xmlns:xlink="http://www.w3.org/1999/xlink" x="0px" y="0px"
	 viewBox="0 0 84.4 59.3" style="enable-background:new 0 0 84.4 59.3;" xml:space="preserve">
<style type="text/css">
	.st0{fill:#E0E0E0;}
</style>
<polygon class="st0" points="0,25.3 10.8,58.7 14.5,57.5 3.7,24.1 "/>
<path class="st0" d="M72.6,34.8c-5.6-6.2-12.4-9.5-14.1-9.9c-1.7-0.4-2.6-0.1-2.6-0.1s-0.8-0.3-0.9-1.1c-0.1-1.1,1.2-2.5,1.2-2.5
	s-0.8-1.9-0.9-3.1c-0.1-1.3,0.1-6-1.6-9.7C52,5,50.1,4.6,48.8,3.6C48.1,3,46.7,1.6,45.2,1c-6.4-2.5-11.1,0.5-12.4,1.4
	c-2.4,1.6-6.3,3.5-6.8,5.5c-0.4,1.5,1.2,2,1.2,2s-0.5,5.8-0.4,6.4c0.1,1,1.1,1.2,1.4,1.8c0.5,1.3-0.9,4.2-1.5,6.1
	c-0.3,0.7-0.2,1,0,1.4c0.5,1,2.5-0.1,3,0.7c0.3,0.4-0.1,1.6,0.1,1.9c0.2,0.4,1.2,0.4,1.2,0.4s-0.6,0.8-0.3,1.3
	c0.3,0.5,1.5,0.4,1.7,1.1c0.3,0.8-0.8,3,1.3,3.7c2.4,0.7,5.2-1.9,6.2-1.8c1.4,0.1,1.1,1.7,1.6,2.5c0.5,0.8,1.8,2,1.8,2
	s-1.2,7.1-1.2,10.5c0,2.3,0.4,5.2,0.4,6.4c0,1.3-0.2,2-0.4,2.9H42c-0.1,0.1-0.2,0.2-0.4,0.2H1.2v2l83.2,0
	C84.4,59.3,82,45.1,72.6,34.8z"/>
</svg>
